<svg xmlns="http://www.w3.org/2000/svg" xmlns:xlink="http://www.w3.org/1999/xlink"><symbol viewBox="0 0 51.997 51.997" id="i-like"><path d="M51.911 16.242c-.759-8.354-6.672-14.415-14.072-14.415-4.93 0-9.444 2.653-11.984 6.905-2.517-4.307-6.846-6.906-11.697-6.906C6.759 1.826.845 7.887.087 16.241c-.06.369-.306 2.311.442 5.478 1.078 4.568 3.568 8.723 7.199 12.013l18.115 16.439 18.426-16.438c3.631-3.291 6.121-7.445 7.199-12.014.748-3.166.502-5.108.443-5.477zm-2.39 5.019c-.984 4.172-3.265 7.973-6.59 10.985L25.855 47.481 9.072 32.25c-3.331-3.018-5.611-6.818-6.596-10.99-.708-2.997-.417-4.69-.416-4.701l.015-.101c.65-7.319 5.731-12.632 12.083-12.632 4.687 0 8.813 2.88 10.771 7.515l.921 2.183.921-2.183c1.927-4.564 6.271-7.514 11.069-7.514 6.351 0 11.433 5.313 12.096 12.727.002.016.293 1.71-.415 4.707z"/></symbol><symbol viewBox="0 0 58.995 58.995" id="i-share"><path d="M39.927 41.929c-.524.524-.975 1.1-1.365 1.709l-17.28-10.489a9.93 9.93 0 0 0 .716-3.693 9.949 9.949 0 0 0-.715-3.693l17.284-10.409C40.342 18.142 43.454 20 46.998 20c5.514 0 10-4.486 10-10s-4.486-10-10-10-10 4.486-10 10a9.94 9.94 0 0 0 .667 3.562L20.358 23.985c-1.788-2.724-4.866-4.529-8.361-4.529-5.514 0-10 4.486-10 10s4.486 10 10 10c3.495 0 6.572-1.805 8.36-4.529L37.661 45.43a9.987 9.987 0 0 0-.664 3.57 9.932 9.932 0 0 0 2.929 7.071c1.949 1.949 4.51 2.924 7.071 2.924s5.122-.975 7.071-2.924c1.889-1.889 2.929-4.4 2.929-7.071s-1.04-5.183-2.929-7.071c-3.899-3.9-10.242-3.9-14.141 0zM46.998 2c4.411 0 8 3.589 8 8s-3.589 8-8 8-8-3.589-8-8 3.588-8 8-8zm-35 35.456c-4.411 0-8-3.589-8-8s3.589-8 8-8 8 3.589 8 8-3.589 8-8 8zm40.656 17.201c-3.119 3.119-8.194 3.119-11.313 0A7.95 7.95 0 0 1 38.998 49a7.95 7.95 0 0 1 2.343-5.657c1.56-1.56 3.608-2.339 5.657-2.339s4.097.779 5.657 2.339c1.511 1.511 2.343 3.521 2.343 5.657s-.832 4.146-2.344 5.657z"/></symbol><symbol viewBox="0 0 49.94 49.94" id="i-star"><path d="M48.856 22.731a3.56 3.56 0 0 0 .906-3.671 3.56 3.56 0 0 0-2.892-2.438l-12.092-1.757a1.58 1.58 0 0 1-1.19-.865L28.182 3.043a3.56 3.56 0 0 0-3.212-1.996 3.56 3.56 0 0 0-3.211 1.996L16.352 14c-.23.467-.676.79-1.191.865L3.069 16.623A3.557 3.557 0 0 0 .178 19.06a3.56 3.56 0 0 0 .906 3.671l8.749 8.528c.373.364.544.888.456 1.4L8.224 44.702a3.559 3.559 0 0 0 1.424 3.502 3.552 3.552 0 0 0 3.772.273l10.814-5.686a1.583 1.583 0 0 1 1.472 0l10.815 5.686a3.568 3.568 0 0 0 3.772-.273 3.559 3.559 0 0 0 1.424-3.502L39.651 32.66a1.582 1.582 0 0 1 .456-1.4l8.749-8.529zM37.681 32.998l2.065 12.042a1.553 1.553 0 0 1-.629 1.547 1.558 1.558 0 0 1-1.665.121l-10.815-5.687a3.588 3.588 0 0 0-3.334.001L12.49 46.708a1.56 1.56 0 0 1-1.666-.121 1.554 1.554 0 0 1-.629-1.547l2.065-12.042a3.581 3.581 0 0 0-1.03-3.17l-8.75-8.529a1.55 1.55 0 0 1-.4-1.621c.19-.586.667-.988 1.276-1.077l12.091-1.757a3.576 3.576 0 0 0 2.697-1.959l5.407-10.957a1.551 1.551 0 0 1 1.418-.881c.616 0 1.146.329 1.419.881l5.407 10.957a3.575 3.575 0 0 0 2.696 1.959l12.092 1.757a1.552 1.552 0 0 1 1.276 1.077c.19.585.041 1.191-.4 1.621l-8.749 8.528a3.58 3.58 0 0 0-1.029 3.171z"/></symbol><symbol viewBox="0 0 31.112 31.112" id="i-x"><path d="M31.112 1.414L29.698 0 15.556 14.142 1.414 0 0 1.414l14.142 14.142L0 29.698l1.414 1.414L15.556 16.97l14.142 14.142 1.414-1.414L16.97 15.556z"/></symbol></svg>